<svg xmlns="http://www.w3.org/2000/svg" width="3840" height="2420"><path d="M1840,1126L1701,1183L1739,1588Z" fill="#49b5c3" stroke="#49b5c3" stroke-width="1.51"/><path d="M1739,1588L2192,1455L1840,1126Z" fill="#3cafc4" stroke="#3cafc4" stroke-width="1.51"/><path d="M1938,1669L2192,1455L1739,1588Z" fill="#36a7c3" stroke="#36a7c3" stroke-width="1.51"/><path d="M1739,1588L1792,1845L1938,1669Z" fill="#3aa4c1" stroke="#3aa4c1" stroke-width="1.51"/><path d="M2605,1473L2367,1375L2192,1455Z" fill="#2f9fc2" stroke="#2f9fc2" stroke-width="1.51"/><path d="M2192,1455L2367,1375L1840,1126Z" fill="#3aabc3" stroke="#3aabc3" stroke-width="1.51"/><path d="M2149,2003L2192,1455L1938,1669Z" fill="#2e9dc1" stroke="#2e9dc1" stroke-width="1.51"/><path d="M1290,1681L1746,1869L1739,1588Z" fill="#4aa8c0" stroke="#4aa8c0" stroke-width="1.51"/><path d="M1739,1588L1746,1869L1792,1845Z" fill="#40a2bf" stroke="#40a2bf" stroke-width="1.51"/><path d="M1840,1126L1457,822L1701,1183Z" fill="#5dbec1" stroke="#5dbec1" stroke-width="1.51"/><path d="M2352,809L1939,832L1840,1126Z" fill="#56b9c1" stroke="#56b9c1" stroke-width="1.51"/><path d="M2367,1375L2352,809L1840,1126Z" fill="#46b1c2" stroke="#46b1c2" stroke-width="1.51"/><path d="M1216,1246L1290,1681L1739,1588Z" fill="#57b3c0" stroke="#57b3c0" stroke-width="1.51"/><path d="M1216,1246L1739,1588L1701,1183Z" fill="#54b7c1" stroke="#54b7c1" stroke-width="1.51"/><path d="M1457,822L1216,1246L1701,1183Z" fill="#64c1c0" stroke="#64c1c0" stroke-width="1.51"/><path d="M1939,832L1457,822L1840,1126Z" fill="#60c0c1" stroke="#60c0c1" stroke-width="1.51"/><path d="M2082,2233L2149,2003L1792,1845Z" fill="#358eba" stroke="#358eba" stroke-width="1.51"/><path d="M1792,1845L2149,2003L1938,1669Z" fill="#349abe" stroke="#349abe" stroke-width="1.51"/><path d="M2367,1375L2605,1473L2483,1278Z" fill="#2f9fc2" stroke="#2f9fc2" stroke-width="1.51"/><path d="M2483,1278L2352,809L2367,1375Z" fill="#3da9c2" stroke="#3da9c2" stroke-width="1.51"/><path d="M1939,832L1519,364L1457,822Z" fill="#76c8bd" stroke="#76c8bd" stroke-width="1.51"/><path d="M2483,1278L2616,849L2352,809Z" fill="#4babc1" stroke="#4babc1" stroke-width="1.51"/><path d="M2695,1818L2605,1473L2192,1455Z" fill="#2697c1" stroke="#2697c1" stroke-width="1.51"/><path d="M1457,822L1163,1037L1216,1246Z" fill="#6ec5be" stroke="#6ec5be" stroke-width="1.51"/><path d="M863,1620L1192,1851L1290,1681Z" fill="#66b0bc" stroke="#66b0bc" stroke-width="1.51"/><path d="M1290,1681L1192,1851L1746,1869Z" fill="#54a5bc" stroke="#54a5bc" stroke-width="1.51"/><path d="M1746,1869L2082,2233L1792,1845Z" fill="#3a94ba" stroke="#3a94ba" stroke-width="1.51"/><path d="M863,1620L1290,1681L1216,1246Z" fill="#69b8be" stroke="#69b8be" stroke-width="1.51"/><path d="M2197,501L2001,496L1939,832Z" fill="#6fc1be" stroke="#6fc1be" stroke-width="1.51"/><path d="M1667,2336L2082,2233L1746,1869Z" fill="#3d8bb6" stroke="#3d8bb6" stroke-width="1.51"/><path d="M2149,2003L2695,1818L2192,1455Z" fill="#2793bf" stroke="#2793bf" stroke-width="1.51"/><path d="M2873,1236L2616,849L2483,1278Z" fill="#3da2c0" stroke="#3da2c0" stroke-width="1.51"/><path d="M2352,809L2197,501L1939,832Z" fill="#63bbbf" stroke="#63bbbf" stroke-width="1.51"/><path d="M2639,474L2197,501L2352,809Z" fill="#6cb7be" stroke="#6cb7be" stroke-width="1.51"/><path d="M2700,2190L2695,1818L2149,2003Z" fill="#2481b8" stroke="#2481b8" stroke-width="1.51"/><path d="M2605,1473L2873,1236L2483,1278Z" fill="#2f9bc0" stroke="#2f9bc0" stroke-width="1.51"/><path d="M1320,2267L1667,2336L1746,1869Z" fill="#4c8fb4" stroke="#4c8fb4" stroke-width="1.51"/><path d="M1163,1037L890,1177L1216,1246Z" fill="#75c7be" stroke="#75c7be" stroke-width="1.51"/><path d="M954,880L890,1177L1163,1037Z" fill="#81ccbd" stroke="#81ccbd" stroke-width="1.51"/><path d="M3001,1719L2873,1236L2605,1473Z" fill="#2b8ebc" stroke="#2b8ebc" stroke-width="1.51"/><path d="M890,1177L863,1620L1216,1246Z" fill="#76c2be" stroke="#76c2be" stroke-width="1.51"/><path d="M1192,1851L1320,2267L1746,1869Z" fill="#549ab7" stroke="#549ab7" stroke-width="1.51"/><path d="M1457,822L954,880L1163,1037Z" fill="#7bcabc" stroke="#7bcabc" stroke-width="1.51"/><path d="M1126,486L954,880L1457,822Z" fill="#86cfbb" stroke="#86cfbb" stroke-width="1.51"/><path d="M2082,2233L2153,2374L2149,2003Z" fill="#3381b5" stroke="#3381b5" stroke-width="1.51"/><path d="M1896,2482L2153,2374L2082,2233Z" fill="#387cb1" stroke="#387cb1" stroke-width="1.51"/><path d="M1001,2014L1320,2267L1192,1851Z" fill="#629cb5" stroke="#629cb5" stroke-width="1.51"/><path d="M2001,496L1519,364L1939,832Z" fill="#79c8be" stroke="#79c8be" stroke-width="1.51"/><path d="M2086,286L1519,364L2001,496Z" fill="#87cdbd" stroke="#87cdbd" stroke-width="1.51"/><path d="M863,1620L1001,2014L1192,1851Z" fill="#6dabb9" stroke="#6dabb9" stroke-width="1.51"/><path d="M2197,501L2086,286L2001,496Z" fill="#7fc5be" stroke="#7fc5be" stroke-width="1.51"/><path d="M2248,74L2086,286L2197,501Z" fill="#8ac6bc" stroke="#8ac6bc" stroke-width="1.51"/><path d="M1566,2446L1896,2482L1667,2336Z" fill="#4880b0" stroke="#4880b0" stroke-width="1.51"/><path d="M1667,2336L1896,2482L2082,2233Z" fill="#3e81b2" stroke="#3e81b2" stroke-width="1.51"/><path d="M1320,2267L1566,2446L1667,2336Z" fill="#5187b0" stroke="#5187b0" stroke-width="1.51"/><path d="M1519,364L1126,486L1457,822Z" fill="#8bd0bb" stroke="#8bd0bb" stroke-width="1.51"/><path d="M2616,849L2639,474L2352,809Z" fill="#5eb0be" stroke="#5eb0be" stroke-width="1.51"/><path d="M2873,1236L2821,726L2616,849Z" fill="#4da1bc" stroke="#4da1bc" stroke-width="1.51"/><path d="M2453,2603L2700,2190L2153,2374Z" fill="#2d70b0" stroke="#2d70b0" stroke-width="1.51"/><path d="M2153,2374L2700,2190L2149,2003Z" fill="#2d7cb5" stroke="#2d7cb5" stroke-width="1.51"/><path d="M2695,1818L3001,1719L2605,1473Z" fill="#2189bd" stroke="#2189bd" stroke-width="1.51"/><path d="M2821,726L2639,474L2616,849Z" fill="#60abbb" stroke="#60abbb" stroke-width="1.51"/><path d="M2931,2060L3001,1719L2695,1818Z" fill="#237bb6" stroke="#237bb6" stroke-width="1.51"/><path d="M3305,481L2915,502L3418,693Z" fill="#6b98b2" stroke="#6b98b2" stroke-width="1.51"/><path d="M2700,2190L2814,2106L2695,1818Z" fill="#2377b4" stroke="#2377b4" stroke-width="1.51"/><path d="M2814,2106L2931,2060L2695,1818Z" fill="#2376b3" stroke="#2376b3" stroke-width="1.51"/><path d="M2930,2588L2931,2060L2814,2106Z" fill="#2566ac" stroke="#2566ac" stroke-width="1.51"/><path d="M726,598L685,780L954,880Z" fill="#9bd7b9" stroke="#9bd7b9" stroke-width="1.51"/><path d="M954,880L685,780L890,1177Z" fill="#8fd1bb" stroke="#8fd1bb" stroke-width="1.51"/><path d="M890,1177L517,1412L863,1620Z" fill="#84c4bd" stroke="#84c4bd" stroke-width="1.51"/><path d="M1519,364L1466,98L1126,486Z" fill="#9dd7b9" stroke="#9dd7b9" stroke-width="1.51"/><path d="M1126,486L726,598L954,880Z" fill="#9ad6b9" stroke="#9ad6b9" stroke-width="1.51"/><path d="M1783,-139L1466,98L1519,364Z" fill="#a2d8ba" stroke="#a2d8ba" stroke-width="1.51"/><path d="M2639,474L2655,299L2197,501Z" fill="#7ab9bc" stroke="#7ab9bc" stroke-width="1.51"/><path d="M2086,286L1783,-139L1519,364Z" fill="#98d3bb" stroke="#98d3bb" stroke-width="1.51"/><path d="M2915,502L2655,299L2639,474Z" fill="#78b0ba" stroke="#78b0ba" stroke-width="1.51"/><path d="M863,1620L604,1988L1001,2014Z" fill="#7aacb7" stroke="#7aacb7" stroke-width="1.51"/><path d="M497,1129L517,1412L890,1177Z" fill="#8ecebd" stroke="#8ecebd" stroke-width="1.51"/><path d="M2655,299L2248,74L2197,501Z" fill="#87c1bc" stroke="#87c1bc" stroke-width="1.51"/><path d="M2931,2060L3170,1756L3001,1719Z" fill="#2376b4" stroke="#2376b4" stroke-width="1.51"/><path d="M3001,1719L3266,1199L2873,1236Z" fill="#3089b9" stroke="#3089b9" stroke-width="1.51"/><path d="M2700,2190L2930,2588L2814,2106Z" fill="#2667ad" stroke="#2667ad" stroke-width="1.51"/><path d="M2321,2687L2453,2603L2153,2374Z" fill="#336dad" stroke="#336dad" stroke-width="1.51"/><path d="M2321,2687L2153,2374L1896,2482Z" fill="#3873ae" stroke="#3873ae" stroke-width="1.51"/><path d="M2821,726L2915,502L2639,474Z" fill="#6baab9" stroke="#6baab9" stroke-width="1.51"/><path d="M3266,1199L2821,726L2873,1236Z" fill="#4596b9" stroke="#4596b9" stroke-width="1.51"/><path d="M685,780L497,1129L890,1177Z" fill="#94d2bb" stroke="#94d2bb" stroke-width="1.51"/><path d="M861,136L726,598L1126,486Z" fill="#aedeb7" stroke="#aedeb7" stroke-width="1.51"/><path d="M1566,2446L1559,3049L1896,2482Z" fill="#4b77aa" stroke="#4b77aa" stroke-width="1.51"/><path d="M1320,2267L1223,2592L1566,2446Z" fill="#5885ad" stroke="#5885ad" stroke-width="1.51"/><path d="M743,2326L1223,2592L1320,2267Z" fill="#698cad" stroke="#698cad" stroke-width="1.51"/><path d="M743,2326L1320,2267L1001,2014Z" fill="#6c96b0" stroke="#6c96b0" stroke-width="1.51"/><path d="M98,1016L497,1129L233,604Z" fill="#a9dab9" stroke="#a9dab9" stroke-width="1.51"/><path d="M2349,3001L2321,2687L1954,3100Z" fill="#2c6397" stroke="#2c6397" stroke-width="1.51"/><path d="M517,1412L604,1988L863,1620Z" fill="#85bbbb" stroke="#85bbbb" stroke-width="1.51"/><path d="M3170,1756L3266,1199L3001,1719Z" fill="#2a7fb6" stroke="#2a7fb6" stroke-width="1.51"/><path d="M604,1988L743,2326L1001,2014Z" fill="#7ba0b2" stroke="#7ba0b2" stroke-width="1.51"/><path d="M2248,74L1783,-139L2086,286Z" fill="#97cebc" stroke="#97cebc" stroke-width="1.51"/><path d="M1466,98L1113,29L1126,486Z" fill="#aaddb8" stroke="#aaddb8" stroke-width="1.51"/><path d="M1327,-94L1113,29L1466,98Z" fill="#afdeb7" stroke="#afdeb7" stroke-width="1.51"/><path d="M2585,-281L2251,-284L2248,74Z" fill="#9dc8bb" stroke="#9dc8bb" stroke-width="1.51"/><path d="M2248,74L2251,-284L1783,-139Z" fill="#9fd0bc" stroke="#9fd0bc" stroke-width="1.51"/><path d="M2915,502L2922,245L2655,299Z" fill="#7faeb7" stroke="#7faeb7" stroke-width="1.51"/><path d="M3243,288L2922,245L2915,502Z" fill="#7ea6b4" stroke="#7ea6b4" stroke-width="1.51"/><path d="M1487,-291L1327,-94L1466,98Z" fill="#b0ddb8" stroke="#b0ddb8" stroke-width="1.51"/><path d="M726,598L440,514L685,780Z" fill="#addeb7" stroke="#addeb7" stroke-width="1.51"/><path d="M1113,29L861,136L1126,486Z" fill="#b4e0b7" stroke="#b4e0b7" stroke-width="1.51"/><path d="M927,-240L861,136L1113,29Z" fill="#c1e6b5" stroke="#c1e6b5" stroke-width="1.51"/><path d="M3418,693L2915,502L2821,726Z" fill="#649db5" stroke="#649db5" stroke-width="1.51"/><path d="M3170,1756L3461,1512L3266,1199Z" fill="#2e7cb4" stroke="#2e7cb4" stroke-width="1.51"/><path d="M3592,1932L3461,1512L3170,1756Z" fill="#266fb0" stroke="#266fb0" stroke-width="1.51"/><path d="M3319,2192L3170,1756L2931,2060Z" fill="#2369ae" stroke="#2369ae" stroke-width="1.51"/><path d="M604,1988L506,2257L743,2326Z" fill="#849fb0" stroke="#849fb0" stroke-width="1.51"/><path d="M743,2326L758,2581L1223,2592Z" fill="#748baa" stroke="#748baa" stroke-width="1.51"/><path d="M286,2025L506,2257L604,1988Z" fill="#89a6b2" stroke="#89a6b2" stroke-width="1.51"/><path d="M286,2025L604,1988L517,1412Z" fill="#8bb7b8" stroke="#8bb7b8" stroke-width="1.51"/><path d="M2453,2603L2930,2588L2700,2190Z" fill="#2965ab" stroke="#2965ab" stroke-width="1.51"/><path d="M2970,2849L2930,2588L2453,2603Z" fill="#2959a3" stroke="#2959a3" stroke-width="1.51"/><path d="M643,2522L758,2581L743,2326Z" fill="#7f8faa" stroke="#7f8faa" stroke-width="1.51"/><path d="M1223,2592L1559,3049L1566,2446Z" fill="#5479a6" stroke="#5479a6" stroke-width="1.51"/><path d="M758,2581L1139,2864L1223,2592Z" fill="#6a81a5" stroke="#6a81a5" stroke-width="1.51"/><path d="M861,136L440,514L726,598Z" fill="#bae3b6" stroke="#bae3b6" stroke-width="1.51"/><path d="M47,1506L286,2025L517,1412Z" fill="#93c1bb" stroke="#93c1bb" stroke-width="1.51"/><path d="M2930,2588L3319,2192L2931,2060Z" fill="#255fa9" stroke="#255fa9" stroke-width="1.51"/><path d="M758,2581L881,2918L1139,2864Z" fill="#6d7f9d" stroke="#6d7f9d" stroke-width="1.51"/><path d="M506,2257L643,2522L743,2326Z" fill="#8396ac" stroke="#8396ac" stroke-width="1.51"/><path d="M3461,1512L3543,1443L3266,1199Z" fill="#347cb3" stroke="#347cb3" stroke-width="1.51"/><path d="M3901,1606L3543,1443L3461,1512Z" fill="#3170ae" stroke="#3170ae" stroke-width="1.51"/><path d="M3418,693L2821,726L3266,1199Z" fill="#5292b5" stroke="#5292b5" stroke-width="1.51"/><path d="M3571,1247L3418,693L3266,1199Z" fill="#4886b2" stroke="#4886b2" stroke-width="1.51"/><path d="M1954,3100L2321,2687L1896,2482Z" fill="#376ca4" stroke="#376ca4" stroke-width="1.51"/><path d="M2321,2687L2349,3001L2453,2603Z" fill="#2d64a2" stroke="#2d64a2" stroke-width="1.51"/><path d="M1783,-139L1487,-291L1466,98Z" fill="#acdbb9" stroke="#acdbb9" stroke-width="1.51"/><path d="M2585,-281L2248,74L2655,299Z" fill="#93c1bb" stroke="#93c1bb" stroke-width="1.51"/><path d="M2585,-281L2655,299L2922,245Z" fill="#8eb8b8" stroke="#8eb8b8" stroke-width="1.51"/><path d="M1139,2864L1559,3049L1223,2592Z" fill="#55779c" stroke="#55779c" stroke-width="1.51"/><path d="M47,1506L517,1412L53,1071Z" fill="#9ccfbc" stroke="#9ccfbc" stroke-width="1.51"/><path d="M506,2257L120,2582L643,2522Z" fill="#8a94aa" stroke="#8a94aa" stroke-width="1.51"/><path d="M1327,-94L927,-240L1113,29Z" fill="#bce3b6" stroke="#bce3b6" stroke-width="1.51"/><path d="M1855,-432L1487,-291L1783,-139Z" fill="#aedbbd" stroke="#aedbbd" stroke-width="1.51"/><path d="M3543,1443L3571,1247L3266,1199Z" fill="#387db2" stroke="#387db2" stroke-width="1.51"/><path d="M1559,3049L1954,3100L1896,2482Z" fill="#3d6e9b" stroke="#3d6e9b" stroke-width="1.51"/><path d="M3305,481L3243,288L2915,502Z" fill="#779eb2" stroke="#779eb2" stroke-width="1.51"/><path d="M3644,63L3243,288L3305,481Z" fill="#8399ad" stroke="#8399ad" stroke-width="1.51"/><path d="M233,604L497,1129L685,780Z" fill="#a6dab8" stroke="#a6dab8" stroke-width="1.51"/><path d="M440,514L233,604L685,780Z" fill="#b2e0b7" stroke="#b2e0b7" stroke-width="1.51"/><path d="M284,101L233,604L440,514Z" fill="#c6e8b5" stroke="#c6e8b5" stroke-width="1.51"/><path d="M2251,-284L1855,-432L1783,-139Z" fill="#a6d5bf" stroke="#a6d5bf" stroke-width="1.51"/><path d="M3067,-8L2585,-281L2922,245Z" fill="#92b4b6" stroke="#92b4b6" stroke-width="1.51"/><path d="M2251,-284L2322,-423L1855,-432Z" fill="#a5d1c2" stroke="#a5d1c2" stroke-width="1.51"/><path d="M53,1071L517,1412L497,1129Z" fill="#99d2bc" stroke="#99d2bc" stroke-width="1.51"/><path d="M3319,2192L3592,1932L3170,1756Z" fill="#2564ab" stroke="#2564ab" stroke-width="1.51"/><path d="M3953,1264L3788,874L3571,1247Z" fill="#4478ae" stroke="#4478ae" stroke-width="1.51"/><path d="M3657,2110L3592,1932L3319,2192Z" fill="#2658a6" stroke="#2658a6" stroke-width="1.51"/><path d="M386,2888L758,2581L643,2522Z" fill="#8389a5" stroke="#8389a5" stroke-width="1.51"/><path d="M386,2888L881,2918L758,2581Z" fill="#7a849c" stroke="#7a849c" stroke-width="1.51"/><path d="M1139,2864L881,2918L1559,3049Z" fill="#577694" stroke="#577694" stroke-width="1.51"/><path d="M98,1016L53,1071L497,1129Z" fill="#a4d7ba" stroke="#a4d7ba" stroke-width="1.51"/><path d="M-310,927L53,1071L98,1016Z" fill="#afdcba" stroke="#afdcba" stroke-width="1.51"/><path d="M3243,288L3067,-8L2922,245Z" fill="#88a8b2" stroke="#88a8b2" stroke-width="1.51"/><path d="M2930,2588L3307,2564L3319,2192Z" fill="#2553a3" stroke="#2553a3" stroke-width="1.51"/><path d="M2586,3081L2970,2849L2453,2603Z" fill="#24589a" stroke="#24589a" stroke-width="1.51"/><path d="M2586,3081L2453,2603L2349,3001Z" fill="#265d99" stroke="#265d99" stroke-width="1.51"/><path d="M2585,-281L2322,-423L2251,-284Z" fill="#a1c9bf" stroke="#a1c9bf" stroke-width="1.51"/><path d="M1954,3100L2586,3081L2349,3001Z" fill="#255c8f" stroke="#255c8f" stroke-width="1.51"/><path d="M1487,-291L927,-240L1327,-94Z" fill="#bae3b6" stroke="#bae3b6" stroke-width="1.51"/><path d="M861,136L451,36L440,514Z" fill="#caeab4" stroke="#caeab4" stroke-width="1.51"/><path d="M1207,-665L927,-240L1487,-291Z" fill="#c0e5bd" stroke="#c0e5bd" stroke-width="1.51"/><path d="M1207,-665L1512,-465L1855,-432Z" fill="#b7e0c5" stroke="#b7e0c5" stroke-width="1.51"/><path d="M1855,-432L1512,-465L1487,-291Z" fill="#b2dec1" stroke="#b2dec1" stroke-width="1.51"/><path d="M2970,2849L3307,2564L2930,2588Z" fill="#264e9e" stroke="#264e9e" stroke-width="1.51"/><path d="M927,-240L686,-120L861,136Z" fill="#caeab4" stroke="#caeab4" stroke-width="1.51"/><path d="M3644,63L3207,-247L3067,-8Z" fill="#92a1ae" stroke="#92a1ae" stroke-width="1.51"/><path d="M3418,693L3626,674L3305,481Z" fill="#678fae" stroke="#678fae" stroke-width="1.51"/><path d="M3788,874L3626,674L3418,693Z" fill="#5c86ad" stroke="#5c86ad" stroke-width="1.51"/><path d="M3788,874L3418,693L3571,1247Z" fill="#5082ae" stroke="#5082ae" stroke-width="1.51"/><path d="M686,-120L451,36L861,136Z" fill="#cfecb4" stroke="#cfecb4" stroke-width="1.51"/><path d="M233,604L-37,421L98,1016Z" fill="#bae2b6" stroke="#bae2b6" stroke-width="1.51"/><path d="M3953,1264L3571,1247L3543,1443Z" fill="#3975ae" stroke="#3975ae" stroke-width="1.51"/><path d="M3482,2530L3657,2110L3319,2192Z" fill="#2651a2" stroke="#2651a2" stroke-width="1.51"/><path d="M927,-240L874,-355L686,-120Z" fill="#d1ecb5" stroke="#d1ecb5" stroke-width="1.51"/><path d="M686,-120L243,-205L451,36Z" fill="#dbf1b3" stroke="#dbf1b3" stroke-width="1.51"/><path d="M1207,-665L874,-355L927,-240Z" fill="#cbeabd" stroke="#cbeabd" stroke-width="1.51"/><path d="M3901,1606L3461,1512L3592,1932Z" fill="#2a69ae" stroke="#2a69ae" stroke-width="1.51"/><path d="M3391,2861L3482,2530L3307,2564Z" fill="#26439a" stroke="#26439a" stroke-width="1.51"/><path d="M3307,2564L3482,2530L3319,2192Z" fill="#264da0" stroke="#264da0" stroke-width="1.51"/><path d="M6,2295L89,2292L-145,1914Z" fill="#98a6af" stroke="#98a6af" stroke-width="1.51"/><path d="M286,2025L89,2292L506,2257Z" fill="#8fa2b0" stroke="#8fa2b0" stroke-width="1.51"/><path d="M243,-205L284,101L451,36Z" fill="#dcf1b3" stroke="#dcf1b3" stroke-width="1.51"/><path d="M451,36L284,101L440,514Z" fill="#d0ecb4" stroke="#d0ecb4" stroke-width="1.51"/><path d="M2585,-281L2539,-589L2322,-423Z" fill="#a1c7c3" stroke="#a1c7c3" stroke-width="1.51"/><path d="M3067,-8L2922,-369L2585,-281Z" fill="#9bb6b5" stroke="#9bb6b5" stroke-width="1.51"/><path d="M3207,-247L2922,-369L3067,-8Z" fill="#99aeb2" stroke="#99aeb2" stroke-width="1.51"/><path d="M3067,-8L3243,288L3644,63Z" fill="#8a9fae" stroke="#8a9fae" stroke-width="1.51"/><path d="M4118,1892L3592,1932L3657,2110Z" fill="#2855a4" stroke="#2855a4" stroke-width="1.51"/><path d="M4118,1892L3901,1606L3592,1932Z" fill="#2a5ba7" stroke="#2a5ba7" stroke-width="1.51"/><path d="M120,2582L386,2888L643,2522Z" fill="#898ba4" stroke="#898ba4" stroke-width="1.51"/><path d="M-145,1914L89,2292L286,2025Z" fill="#96abb1" stroke="#96abb1" stroke-width="1.51"/><path d="M-145,1914L286,2025L47,1506Z" fill="#99bab7" stroke="#99bab7" stroke-width="1.51"/><path d="M2922,-369L2539,-589L2585,-281Z" fill="#9fbfc1" stroke="#9fbfc1" stroke-width="1.51"/><path d="M2322,-423L2539,-589L1855,-432Z" fill="#a5cfc5" stroke="#a5cfc5" stroke-width="1.51"/><path d="M-317,1458L-145,1914L47,1506Z" fill="#9fc6be" stroke="#9fc6be" stroke-width="1.51"/><path d="M3901,1606L3953,1264L3543,1443Z" fill="#366dac" stroke="#366dac" stroke-width="1.51"/><path d="M2922,-369L3461,-463L2539,-589Z" fill="#9eb3be" stroke="#9eb3be" stroke-width="1.51"/><path d="M3644,63L3305,481L3626,674Z" fill="#7891ac" stroke="#7891ac" stroke-width="1.51"/><path d="M120,2582L506,2257L89,2292Z" fill="#909aab" stroke="#909aab" stroke-width="1.51"/><path d="M881,2918L-65,2957L1559,3049Z" fill="#6d7c91" stroke="#6d7c91" stroke-width="1.51"/><path d="M6,2295L120,2582L89,2292Z" fill="#959bab" stroke="#959bab" stroke-width="1.51"/><path d="M284,101L-37,421L233,604Z" fill="#cdebb4" stroke="#cdebb4" stroke-width="1.51"/><path d="M53,1071L-281,1245L47,1506Z" fill="#a5d4bd" stroke="#a5d4bd" stroke-width="1.51"/><path d="M2970,2849L3391,2861L3307,2564Z" fill="#224696" stroke="#224696" stroke-width="1.51"/><path d="M3482,2530L4033,2309L3657,2110Z" fill="#26479d" stroke="#26479d" stroke-width="1.51"/><path d="M2586,3081L3391,2861L2970,2849Z" fill="#1e4a8f" stroke="#1e4a8f" stroke-width="1.51"/><path d="M653,-554L243,-205L686,-120Z" fill="#dff2b6" stroke="#dff2b6" stroke-width="1.51"/><path d="M1512,-465L1207,-665L1487,-291Z" fill="#bae2c2" stroke="#bae2c2" stroke-width="1.51"/><path d="M2539,-589L1207,-665L1855,-432Z" fill="#addac9" stroke="#addac9" stroke-width="1.51"/><path d="M-310,927L-281,1245L53,1071Z" fill="#addbbf" stroke="#addbbf" stroke-width="1.51"/><path d="M-281,1245L-317,1458L47,1506Z" fill="#a4d0c0" stroke="#a4d0c0" stroke-width="1.51"/><path d="M3908,464L3644,63L3626,674Z" fill="#798ba9" stroke="#798ba9" stroke-width="1.51"/><path d="M3996,708L3626,674L3788,874Z" fill="#5c7faa" stroke="#5c7faa" stroke-width="1.51"/><path d="M-461,1142L-440,1556L-317,1458Z" fill="#a7d1c7" stroke="#a7d1c7" stroke-width="1.51"/><path d="M-37,421L-310,927L98,1016Z" fill="#b8e1b9" stroke="#b8e1b9" stroke-width="1.51"/><path d="M3391,2861L3576,2781L3482,2530Z" fill="#243e94" stroke="#243e94" stroke-width="1.51"/><path d="M-149,2593L170,2823L120,2582Z" fill="#948ea4" stroke="#948ea4" stroke-width="1.51"/><path d="M120,2582L170,2823L386,2888Z" fill="#8a8a9d" stroke="#8a8a9d" stroke-width="1.51"/><path d="M-149,2593L120,2582L6,2295Z" fill="#9797a9" stroke="#9797a9" stroke-width="1.51"/><path d="M-444,2207L6,2295L-145,1914Z" fill="#9aa9b5" stroke="#9aa9b5" stroke-width="1.51"/><path d="M3953,1264L3996,708L3788,874Z" fill="#5078a8" stroke="#5078a8" stroke-width="1.51"/><path d="M3996,708L3908,464L3626,674Z" fill="#6881a9" stroke="#6881a9" stroke-width="1.51"/><path d="M-631,477L-458,1004L-310,927Z" fill="#bce4c4" stroke="#bce4c4" stroke-width="1.51"/><path d="M284,101L-51,114L-37,421Z" fill="#daf1b3" stroke="#daf1b3" stroke-width="1.51"/><path d="M653,-554L686,-120L874,-355Z" fill="#d7efb9" stroke="#d7efb9" stroke-width="1.51"/><path d="M1207,-665L653,-554L874,-355Z" fill="#d2edc1" stroke="#d2edc1" stroke-width="1.51"/><path d="M-87,-70L-51,114L284,101Z" fill="#e1f3b2" stroke="#e1f3b2" stroke-width="1.51"/><path d="M-317,1458L-440,1556L-145,1914Z" fill="#a1c6c2" stroke="#a1c6c2" stroke-width="1.51"/><path d="M-461,1142L-317,1458L-281,1245Z" fill="#a8d5c5" stroke="#a8d5c5" stroke-width="1.51"/><path d="M4033,2309L4118,1892L3657,2110Z" fill="#254b9c" stroke="#254b9c" stroke-width="1.51"/><path d="M3901,1606L4266,1561L3953,1264Z" fill="#3066a2" stroke="#3066a2" stroke-width="1.51"/><path d="M3953,1264L4189,713L3996,708Z" fill="#5076a1" stroke="#5076a1" stroke-width="1.51"/><path d="M-440,1556L-396,1911L-145,1914Z" fill="#9fbec1" stroke="#9fbec1" stroke-width="1.51"/><path d="M-310,927L-461,1142L-281,1245Z" fill="#aedbc4" stroke="#aedbc4" stroke-width="1.51"/><path d="M-458,1004L-461,1142L-310,927Z" fill="#b2ddc5" stroke="#b2ddc5" stroke-width="1.51"/><path d="M-631,477L-310,927L-37,421Z" fill="#c7e8bf" stroke="#c7e8bf" stroke-width="1.51"/><path d="M-444,2207L-149,2593L6,2295Z" fill="#9a9eb0" stroke="#9a9eb0" stroke-width="1.51"/><path d="M4088,2518L4033,2309L3482,2530Z" fill="#263c98" stroke="#263c98" stroke-width="1.51"/><path d="M4376,1782L4266,1561L4118,1892Z" fill="#215795" stroke="#215795" stroke-width="1.51"/><path d="M4118,1892L4266,1561L3901,1606Z" fill="#265d9f" stroke="#265d9f" stroke-width="1.51"/><path d="M4249,199L3934,134L3908,464Z" fill="#7e869e" stroke="#7e869e" stroke-width="1.51"/><path d="M3908,464L3934,134L3644,63Z" fill="#858ba7" stroke="#858ba7" stroke-width="1.51"/><path d="M3644,63L3746,-161L3207,-247Z" fill="#949bab" stroke="#949bab" stroke-width="1.51"/><path d="M4189,713L3908,464L3996,708Z" fill="#627da0" stroke="#627da0" stroke-width="1.51"/><path d="M4282,1358L4189,713L3953,1264Z" fill="#3f709e" stroke="#3f709e" stroke-width="1.51"/><path d="M4266,1561L4282,1358L3953,1264Z" fill="#30669d" stroke="#30669d" stroke-width="1.51"/><path d="M-51,114L-482,244L-37,421Z" fill="#ddf2b8" stroke="#ddf2b8" stroke-width="1.51"/><path d="M243,-205L-87,-70L284,101Z" fill="#e2f3b2" stroke="#e2f3b2" stroke-width="1.51"/><path d="M99,-504L-87,-70L243,-205Z" fill="#ebf7b3" stroke="#ebf7b3" stroke-width="1.51"/><path d="M3934,134L3746,-161L3644,63Z" fill="#8e90a8" stroke="#8e90a8" stroke-width="1.51"/><path d="M3207,-247L3461,-463L2922,-369Z" fill="#9ba8b5" stroke="#9ba8b5" stroke-width="1.51"/><path d="M3746,-161L3461,-463L3207,-247Z" fill="#999eae" stroke="#999eae" stroke-width="1.51"/><path d="M4033,2309L4202,2082L4118,1892Z" fill="#214893" stroke="#214893" stroke-width="1.51"/><path d="M-396,1911L-444,2207L-145,1914Z" fill="#9db1bc" stroke="#9db1bc" stroke-width="1.51"/><path d="M-440,1556L-444,2207L-396,1911Z" fill="#9fb9c2" stroke="#9fb9c2" stroke-width="1.51"/><path d="M-478,2553L-444,2207L-612,2892Z" fill="#9c96b6" stroke="#9c96b6" stroke-width="1.51"/><path d="M-149,2593L-65,2957L170,2823Z" fill="#908b9c" stroke="#908b9c" stroke-width="1.51"/><path d="M170,2823L-65,2957L386,2888Z" fill="#878695" stroke="#878695" stroke-width="1.51"/><path d="M386,2888L-65,2957L881,2918Z" fill="#7e8393" stroke="#7e8393" stroke-width="1.51"/><path d="M1559,3049L-65,2957L1954,3100Z" fill="#56748e" stroke="#56748e" stroke-width="1.51"/><path d="M-612,2892L-65,2957L-149,2593Z" fill="#928ca1" stroke="#928ca1" stroke-width="1.51"/><path d="M4033,2309L4088,2518L4202,2082Z" fill="#203e8f" stroke="#203e8f" stroke-width="1.51"/><path d="M3576,2781L4088,2518L3482,2530Z" fill="#263a97" stroke="#263a97" stroke-width="1.51"/><path d="M4266,1561L4376,1782L4282,1358Z" fill="#255d95" stroke="#255d95" stroke-width="1.51"/><path d="M4487,478L4249,199L4189,713Z" fill="#677a91" stroke="#677a91" stroke-width="1.51"/><path d="M4202,2082L4376,1782L4118,1892Z" fill="#204f92" stroke="#204f92" stroke-width="1.51"/><path d="M4284,2751L4376,1782L4202,2082Z" fill="#1c3f88" stroke="#1c3f88" stroke-width="1.51"/><path d="M653,-554L99,-504L243,-205Z" fill="#e7f6ba" stroke="#e7f6ba" stroke-width="1.51"/><path d="M-113,-618L99,-504L653,-554Z" fill="#edf8c0" stroke="#edf8c0" stroke-width="1.51"/><path d="M4047,-40L3746,-161L3934,134Z" fill="#8e8ca4" stroke="#8e8ca4" stroke-width="1.51"/><path d="M4047,-40L3724,-422L3746,-161Z" fill="#9791a7" stroke="#9791a7" stroke-width="1.51"/><path d="M3746,-161L3724,-422L3461,-463Z" fill="#9998ae" stroke="#9998ae" stroke-width="1.51"/><path d="M-363,-274L-482,244L-87,-70Z" fill="#eaf7ba" stroke="#eaf7ba" stroke-width="1.51"/><path d="M-87,-70L-482,244L-51,114Z" fill="#e3f4b7" stroke="#e3f4b7" stroke-width="1.51"/><path d="M-458,1004L-631,477L-461,1142Z" fill="#bae1c7" stroke="#bae1c7" stroke-width="1.51"/><path d="M-612,2892L-444,2207L-440,1556Z" fill="#9da6bc" stroke="#9da6bc" stroke-width="1.51"/><path d="M4249,199L4047,-40L3934,134Z" fill="#84879c" stroke="#84879c" stroke-width="1.51"/><path d="M-631,477L-440,1556L-461,1142Z" fill="#b2ddc8" stroke="#b2ddc8" stroke-width="1.51"/><path d="M-444,2207L-478,2553L-149,2593Z" fill="#9b9bb3" stroke="#9b9bb3" stroke-width="1.51"/><path d="M2586,3081L3880,3040L3391,2861Z" fill="#1a3d85" stroke="#1a3d85" stroke-width="1.51"/><path d="M3391,2861L3880,3040L3576,2781Z" fill="#1e3587" stroke="#1e3587" stroke-width="1.51"/><path d="M3576,2781L3880,3040L4088,2518Z" fill="#20318a" stroke="#20318a" stroke-width="1.51"/><path d="M-482,244L-631,477L-37,421Z" fill="#d7efbe" stroke="#d7efbe" stroke-width="1.51"/><path d="M4189,713L4249,199L3908,464Z" fill="#6d7f9b" stroke="#6d7f9b" stroke-width="1.51"/><path d="M4487,478L4189,713L4282,1358Z" fill="#4b7193" stroke="#4b7193" stroke-width="1.51"/><path d="M-482,244L-363,-274L-631,477Z" fill="#e5f5c0" stroke="#e5f5c0" stroke-width="1.51"/><path d="M99,-504L-363,-274L-87,-70Z" fill="#f0f9b7" stroke="#f0f9b7" stroke-width="1.51"/><path d="M4289,-165L3724,-422L4047,-40Z" fill="#928c9e" stroke="#928c9e" stroke-width="1.51"/><path d="M4289,-165L3858,-627L3724,-422Z" fill="#968fa9" stroke="#968fa9" stroke-width="1.51"/><path d="M4376,1782L4487,478L4282,1358Z" fill="#326893" stroke="#326893" stroke-width="1.51"/><path d="M3880,3040L4284,2751L4088,2518Z" fill="#1c2d81" stroke="#1c2d81" stroke-width="1.51"/><path d="M4088,2518L4284,2751L4202,2082Z" fill="#1f3688" stroke="#1f3688" stroke-width="1.51"/><path d="M99,-504L-356,-438L-363,-274Z" fill="#f3fbbf" stroke="#f3fbbf" stroke-width="1.51"/><path d="M1207,-665L-113,-618L653,-554Z" fill="#e3f4c3" stroke="#e3f4c3" stroke-width="1.51"/><path d="M3724,-422L3858,-627L3461,-463Z" fill="#9b98b4" stroke="#9b98b4" stroke-width="1.51"/><path d="M3461,-463L3858,-627L2539,-589Z" fill="#9da7bc" stroke="#9da7bc" stroke-width="1.51"/><path d="M2539,-589L3858,-627L1207,-665Z" fill="#a3c7cb" stroke="#a3c7cb" stroke-width="1.51"/><path d="M4289,-165L4047,-40L4249,199Z" fill="#848596" stroke="#848596" stroke-width="1.51"/><path d="M-113,-618L-356,-438L99,-504Z" fill="#f5fbc1" stroke="#f5fbc1" stroke-width="1.51"/><path d="M-363,-274L-356,-438L-631,477Z" fill="#eef9be" stroke="#eef9be" stroke-width="1.51"/><path d="M3880,3040L4196,3040L4284,2751Z" fill="#162874" stroke="#162874" stroke-width="1.51"/><path d="M2586,3081L4196,3040L3880,3040Z" fill="#19337e" stroke="#19337e" stroke-width="1.51"/><path d="M1954,3100L4196,3040L2586,3081Z" fill="#1a4986" stroke="#1a4986" stroke-width="1.51"/><path d="M4487,478L4289,-165L4249,199Z" fill="#79808f" stroke="#79808f" stroke-width="1.51"/><path d="M-478,2553L-612,2892L-149,2593Z" fill="#9990ae" stroke="#9990ae" stroke-width="1.51"/><path d="M-631,477L-612,2892L-440,1556Z" fill="#a3c7ca" stroke="#a3c7ca" stroke-width="1.51"/><path d="M4487,478L4394,-450L4289,-165Z" fill="#80828c" stroke="#80828c" stroke-width="1.51"/><path d="M4289,-165L4394,-450L3858,-627Z" fill="#908a9e" stroke="#908a9e" stroke-width="1.51"/></svg>