<svg xmlns="http://www.w3.org/2000/svg" width="2880" height="900"><path d="M1649,579L1690,736L1893,620Z" fill="#299ac2" stroke="#299ac2" stroke-width="1.51"/><path d="M1893,620L1912,490L1649,579Z" fill="#2e9ec2" stroke="#2e9ec2" stroke-width="1.51"/><path d="M1690,736L1877,912L1893,620Z" fill="#268cbd" stroke="#268cbd" stroke-width="1.51"/><path d="M1893,620L2287,776L1912,490Z" fill="#258fbe" stroke="#258fbe" stroke-width="1.51"/><path d="M1649,579L1346,700L1690,736Z" fill="#2e9fc2" stroke="#2e9fc2" stroke-width="1.51"/><path d="M1690,736L1745,1062L1877,912Z" fill="#2b7db5" stroke="#2b7db5" stroke-width="1.51"/><path d="M1912,490L1528,275L1649,579Z" fill="#3bacc3" stroke="#3bacc3" stroke-width="1.51"/><path d="M1649,579L1335,509L1346,700Z" fill="#38aac3" stroke="#38aac3" stroke-width="1.51"/><path d="M1438,953L1745,1062L1690,736Z" fill="#3281b5" stroke="#3281b5" stroke-width="1.51"/><path d="M1528,275L1335,509L1649,579Z" fill="#40b3c4" stroke="#40b3c4" stroke-width="1.51"/><path d="M1346,700L1438,953L1690,736Z" fill="#3494bc" stroke="#3494bc" stroke-width="1.51"/><path d="M1912,490L1622,166L1528,275Z" fill="#53b3c1" stroke="#53b3c1" stroke-width="1.51"/><path d="M1877,912L2211,859L1893,620Z" fill="#2280b8" stroke="#2280b8" stroke-width="1.51"/><path d="M1917,1111L2211,859L1877,912Z" fill="#266eb0" stroke="#266eb0" stroke-width="1.51"/><path d="M1745,1062L1917,1111L1877,912Z" fill="#2d6eaf" stroke="#2d6eaf" stroke-width="1.51"/><path d="M1912,490L1891,135L1622,166Z" fill="#57b1bf" stroke="#57b1bf" stroke-width="1.51"/><path d="M2341,215L1891,135L1912,490Z" fill="#53a5bc" stroke="#53a5bc" stroke-width="1.51"/><path d="M2211,859L2287,776L1893,620Z" fill="#237db7" stroke="#237db7" stroke-width="1.51"/><path d="M1745,1062L1671,1190L1917,1111Z" fill="#3268ab" stroke="#3268ab" stroke-width="1.51"/><path d="M1423,1117L1671,1190L1745,1062Z" fill="#396eac" stroke="#396eac" stroke-width="1.51"/><path d="M1438,953L1423,1117L1745,1062Z" fill="#3a78b0" stroke="#3a78b0" stroke-width="1.51"/><path d="M1063,1027L1423,1117L1438,953Z" fill="#467fb0" stroke="#467fb0" stroke-width="1.51"/><path d="M1335,509L1164,681L1346,700Z" fill="#45abc1" stroke="#45abc1" stroke-width="1.51"/><path d="M1346,700L1164,681L1438,953Z" fill="#419abc" stroke="#419abc" stroke-width="1.51"/><path d="M1528,275L1213,399L1335,509Z" fill="#52bbc3" stroke="#52bbc3" stroke-width="1.51"/><path d="M1174,313L1213,399L1528,275Z" fill="#5ebfc1" stroke="#5ebfc1" stroke-width="1.51"/><path d="M1213,399L1164,681L1335,509Z" fill="#4db4c2" stroke="#4db4c2" stroke-width="1.51"/><path d="M2287,776L2346,425L1912,490Z" fill="#2d8cbb" stroke="#2d8cbb" stroke-width="1.51"/><path d="M1213,399L906,602L1164,681Z" fill="#56b5c0" stroke="#56b5c0" stroke-width="1.51"/><path d="M1425,-20L1174,313L1528,275Z" fill="#6fc5bf" stroke="#6fc5bf" stroke-width="1.51"/><path d="M2287,776L2491,685L2346,425Z" fill="#297db6" stroke="#297db6" stroke-width="1.51"/><path d="M2211,859L2417,905L2287,776Z" fill="#236aae" stroke="#236aae" stroke-width="1.51"/><path d="M2206,1311L2417,905L2211,859Z" fill="#265aa6" stroke="#265aa6" stroke-width="1.51"/><path d="M2346,425L2341,215L1912,490Z" fill="#4498ba" stroke="#4498ba" stroke-width="1.51"/><path d="M2537,433L2341,215L2346,425Z" fill="#488db5" stroke="#488db5" stroke-width="1.51"/><path d="M1891,135L1612,-176L1622,166Z" fill="#83c1bd" stroke="#83c1bd" stroke-width="1.51"/><path d="M1622,166L1425,-20L1528,275Z" fill="#74c3be" stroke="#74c3be" stroke-width="1.51"/><path d="M2341,215L1954,-69L1891,135Z" fill="#75afb9" stroke="#75afb9" stroke-width="1.51"/><path d="M2417,905L2491,685L2287,776Z" fill="#236baf" stroke="#236baf" stroke-width="1.51"/><path d="M1612,-176L1425,-20L1622,166Z" fill="#8ecabc" stroke="#8ecabc" stroke-width="1.51"/><path d="M2491,685L2537,433L2346,425Z" fill="#3382b5" stroke="#3382b5" stroke-width="1.51"/><path d="M1164,681L1063,1027L1438,953Z" fill="#4990b6" stroke="#4990b6" stroke-width="1.51"/><path d="M1423,1117L1234,1239L1671,1190Z" fill="#3a71a5" stroke="#3a71a5" stroke-width="1.51"/><path d="M972,1033L1063,1027L1164,681Z" fill="#5490b3" stroke="#5490b3" stroke-width="1.51"/><path d="M1063,1027L1234,1239L1423,1117Z" fill="#4c78ab" stroke="#4c78ab" stroke-width="1.51"/><path d="M1917,1111L2206,1311L2211,859Z" fill="#295ca7" stroke="#295ca7" stroke-width="1.51"/><path d="M1671,1190L2206,1311L1917,1111Z" fill="#265da0" stroke="#265da0" stroke-width="1.51"/><path d="M1234,1239L2206,1311L1671,1190Z" fill="#2d639b" stroke="#2d639b" stroke-width="1.51"/><path d="M1954,-69L1612,-176L1891,135Z" fill="#8cc1bc" stroke="#8cc1bc" stroke-width="1.51"/><path d="M891,389L906,602L1213,399Z" fill="#61bfc0" stroke="#61bfc0" stroke-width="1.51"/><path d="M891,389L1213,399L1174,313Z" fill="#66c2c0" stroke="#66c2c0" stroke-width="1.51"/><path d="M1063,1027L898,1235L1234,1239Z" fill="#5479a4" stroke="#5479a4" stroke-width="1.51"/><path d="M906,602L972,1033L1164,681Z" fill="#57a1ba" stroke="#57a1ba" stroke-width="1.51"/><path d="M1425,-20L1032,128L1174,313Z" fill="#81ccbd" stroke="#81ccbd" stroke-width="1.51"/><path d="M1067,-106L1032,128L1425,-20Z" fill="#9bd5ba" stroke="#9bd5ba" stroke-width="1.51"/><path d="M1260,-380L1067,-106L1425,-20Z" fill="#a8d9ba" stroke="#a8d9ba" stroke-width="1.51"/><path d="M1954,-69L1773,-269L1612,-176Z" fill="#9ac7bb" stroke="#9ac7bb" stroke-width="1.51"/><path d="M2027,-312L1773,-269L1954,-69Z" fill="#9cc3ba" stroke="#9cc3ba" stroke-width="1.51"/><path d="M2341,215L2312,-89L1954,-69Z" fill="#81abb5" stroke="#81abb5" stroke-width="1.51"/><path d="M2374,-44L2312,-89L2341,215Z" fill="#7fa2b2" stroke="#7fa2b2" stroke-width="1.51"/><path d="M1032,128L891,389L1174,313Z" fill="#75c9bd" stroke="#75c9bd" stroke-width="1.51"/><path d="M2537,433L2601,275L2341,215Z" fill="#518cb2" stroke="#518cb2" stroke-width="1.51"/><path d="M2761,572L2601,275L2537,433Z" fill="#4080b1" stroke="#4080b1" stroke-width="1.51"/><path d="M2601,275L2374,-44L2341,215Z" fill="#6a97b1" stroke="#6a97b1" stroke-width="1.51"/><path d="M2312,-89L2027,-312L1954,-69Z" fill="#95b7b7" stroke="#95b7b7" stroke-width="1.51"/><path d="M2129,-360L2027,-312L2312,-89Z" fill="#9cb6b7" stroke="#9cb6b7" stroke-width="1.51"/><path d="M2417,905L2725,885L2491,685Z" fill="#2561aa" stroke="#2561aa" stroke-width="1.51"/><path d="M2491,685L2761,572L2537,433Z" fill="#3278b1" stroke="#3278b1" stroke-width="1.51"/><path d="M2722,1153L2725,885L2417,905Z" fill="#264ea0" stroke="#264ea0" stroke-width="1.51"/><path d="M2206,1311L2490,1313L2417,905Z" fill="#234898" stroke="#234898" stroke-width="1.51"/><path d="M2778,780L2761,572L2491,685Z" fill="#296baf" stroke="#296baf" stroke-width="1.51"/><path d="M1032,128L733,24L891,389Z" fill="#8cd2ba" stroke="#8cd2ba" stroke-width="1.51"/><path d="M1445,-353L1425,-20L1612,-176Z" fill="#a0d3bc" stroke="#a0d3bc" stroke-width="1.51"/><path d="M2725,885L2778,780L2491,685Z" fill="#2860aa" stroke="#2860aa" stroke-width="1.51"/><path d="M1773,-269L1445,-353L1612,-176Z" fill="#a4d0be" stroke="#a4d0be" stroke-width="1.51"/><path d="M2129,-360L1445,-353L1773,-269Z" fill="#a2cac3" stroke="#a2cac3" stroke-width="1.51"/><path d="M1234,1239L773,1267L2206,1311Z" fill="#376b98" stroke="#376b98" stroke-width="1.51"/><path d="M972,1033L898,1235L1063,1027Z" fill="#5c80aa" stroke="#5c80aa" stroke-width="1.51"/><path d="M749,942L898,1235L972,1033Z" fill="#6486ab" stroke="#6486ab" stroke-width="1.51"/><path d="M749,942L972,1033L906,602Z" fill="#629bb4" stroke="#629bb4" stroke-width="1.51"/><path d="M2027,-312L2129,-360L1773,-269Z" fill="#9fc2c1" stroke="#9fc2c1" stroke-width="1.51"/><path d="M2428,-263L2129,-360L2312,-89Z" fill="#9aaeb3" stroke="#9aaeb3" stroke-width="1.51"/><path d="M646,623L749,942L906,602Z" fill="#6daeba" stroke="#6daeba" stroke-width="1.51"/><path d="M2374,-44L2428,-263L2312,-89Z" fill="#90a6b0" stroke="#90a6b0" stroke-width="1.51"/><path d="M2601,275L2718,108L2374,-44Z" fill="#7093af" stroke="#7093af" stroke-width="1.51"/><path d="M2940,374L2718,108L2601,275Z" fill="#5a83ac" stroke="#5a83ac" stroke-width="1.51"/><path d="M2725,885L2908,785L2778,780Z" fill="#2857a5" stroke="#2857a5" stroke-width="1.51"/><path d="M2490,1313L2722,1153L2417,905Z" fill="#26449c" stroke="#26449c" stroke-width="1.51"/><path d="M2718,108L2428,-263L2374,-44Z" fill="#8a9eae" stroke="#8a9eae" stroke-width="1.51"/><path d="M891,389L646,623L906,602Z" fill="#6fbebe" stroke="#6fbebe" stroke-width="1.51"/><path d="M609,442L646,623L891,389Z" fill="#79c5be" stroke="#79c5be" stroke-width="1.51"/><path d="M2129,-360L1260,-380L1445,-353Z" fill="#a7d2c7" stroke="#a7d2c7" stroke-width="1.51"/><path d="M1445,-353L1260,-380L1425,-20Z" fill="#a9d9bd" stroke="#a9d9bd" stroke-width="1.51"/><path d="M2761,572L2940,374L2601,275Z" fill="#447bae" stroke="#447bae" stroke-width="1.51"/><path d="M2778,780L2908,785L2761,572Z" fill="#2b62aa" stroke="#2b62aa" stroke-width="1.51"/><path d="M2910,1064L2908,785L2725,885Z" fill="#264b9f" stroke="#264b9f" stroke-width="1.51"/><path d="M856,-430L848,-72L1067,-106Z" fill="#b9e2b6" stroke="#b9e2b6" stroke-width="1.51"/><path d="M1067,-106L848,-72L1032,128Z" fill="#a5dbb8" stroke="#a5dbb8" stroke-width="1.51"/><path d="M585,225L609,442L891,389Z" fill="#87cebc" stroke="#87cebc" stroke-width="1.51"/><path d="M898,1235L773,1267L1234,1239Z" fill="#547698" stroke="#547698" stroke-width="1.51"/><path d="M749,942L773,1267L898,1235Z" fill="#6980a6" stroke="#6980a6" stroke-width="1.51"/><path d="M332,1082L773,1267L749,942Z" fill="#7889a9" stroke="#7889a9" stroke-width="1.51"/><path d="M434,773L749,942L646,623Z" fill="#7aacb7" stroke="#7aacb7" stroke-width="1.51"/><path d="M848,-72L733,24L1032,128Z" fill="#a6dbb8" stroke="#a6dbb8" stroke-width="1.51"/><path d="M2908,785L2940,374L2761,572Z" fill="#346bac" stroke="#346bac" stroke-width="1.51"/><path d="M2718,108L2858,-79L2428,-263Z" fill="#8a96ab" stroke="#8a96ab" stroke-width="1.51"/><path d="M2722,1153L2910,1064L2725,885Z" fill="#26429b" stroke="#26429b" stroke-width="1.51"/><path d="M3287,544L3071,314L2940,374Z" fill="#3e6f9f" stroke="#3e6f9f" stroke-width="1.51"/><path d="M3037,1298L2910,1064L2722,1153Z" fill="#22328e" stroke="#22328e" stroke-width="1.51"/><path d="M733,24L585,225L891,389Z" fill="#92d3ba" stroke="#92d3ba" stroke-width="1.51"/><path d="M3071,314L2858,-79L2718,108Z" fill="#7184a8" stroke="#7184a8" stroke-width="1.51"/><path d="M585,225L472,396L609,442Z" fill="#92d2bb" stroke="#92d2bb" stroke-width="1.51"/><path d="M609,442L472,396L646,623Z" fill="#85c9bd" stroke="#85c9bd" stroke-width="1.51"/><path d="M2858,-79L2640,-370L2428,-263Z" fill="#989cac" stroke="#989cac" stroke-width="1.51"/><path d="M2428,-263L2640,-370L2129,-360Z" fill="#9ba9b8" stroke="#9ba9b8" stroke-width="1.51"/><path d="M2129,-360L856,-430L1260,-380Z" fill="#acdac9" stroke="#acdac9" stroke-width="1.51"/><path d="M472,396L434,773L646,623Z" fill="#86c1bc" stroke="#86c1bc" stroke-width="1.51"/><path d="M3275,675L2940,374L2908,785Z" fill="#2d63a1" stroke="#2d63a1" stroke-width="1.51"/><path d="M2940,374L3071,314L2718,108Z" fill="#587ba9" stroke="#587ba9" stroke-width="1.51"/><path d="M733,24L442,166L585,225Z" fill="#aadcb8" stroke="#aadcb8" stroke-width="1.51"/><path d="M585,225L442,166L472,396Z" fill="#9fd8b9" stroke="#9fd8b9" stroke-width="1.51"/><path d="M848,-72L554,-365L733,24Z" fill="#c2e6b5" stroke="#c2e6b5" stroke-width="1.51"/><path d="M1260,-380L856,-430L1067,-106Z" fill="#b8e1be" stroke="#b8e1be" stroke-width="1.51"/><path d="M2640,-370L856,-430L2129,-360Z" fill="#a3c8c8" stroke="#a3c8c8" stroke-width="1.51"/><path d="M151,718L264,1005L434,773Z" fill="#8dacb4" stroke="#8dacb4" stroke-width="1.51"/><path d="M333,-58L442,166L733,24Z" fill="#bee5b6" stroke="#bee5b6" stroke-width="1.51"/><path d="M3258,957L3275,675L2908,785Z" fill="#214d93" stroke="#214d93" stroke-width="1.51"/><path d="M2490,1313L3037,1298L2722,1153Z" fill="#1e3486" stroke="#1e3486" stroke-width="1.51"/><path d="M3071,314L3060,-110L2858,-79Z" fill="#7884a1" stroke="#7884a1" stroke-width="1.51"/><path d="M2858,-79L2944,-341L2640,-370Z" fill="#9894aa" stroke="#9894aa" stroke-width="1.51"/><path d="M434,773L332,1082L749,942Z" fill="#819daf" stroke="#819daf" stroke-width="1.51"/><path d="M299,1123L332,1082L264,1005Z" fill="#8a92a9" stroke="#8a92a9" stroke-width="1.51"/><path d="M3258,957L2908,785L2910,1064Z" fill="#224394" stroke="#224394" stroke-width="1.51"/><path d="M3071,314L3234,110L3060,-110Z" fill="#6a7d99" stroke="#6a7d99" stroke-width="1.51"/><path d="M3275,675L3287,544L2940,374Z" fill="#2f669a" stroke="#2f669a" stroke-width="1.51"/><path d="M3275,675L3394,458L3287,544Z" fill="#285f90" stroke="#285f90" stroke-width="1.51"/><path d="M3158,1278L3258,957L2910,1064Z" fill="#1f3288" stroke="#1f3288" stroke-width="1.51"/><path d="M3060,-110L2944,-341L2858,-79Z" fill="#908ca3" stroke="#908ca3" stroke-width="1.51"/><path d="M3037,1298L3158,1278L2910,1064Z" fill="#1c2c80" stroke="#1c2c80" stroke-width="1.51"/><path d="M332,1082L299,1123L773,1267Z" fill="#8188a3" stroke="#8188a3" stroke-width="1.51"/><path d="M264,1005L332,1082L434,773Z" fill="#899dae" stroke="#899dae" stroke-width="1.51"/><path d="M151,718L434,773L472,396Z" fill="#8ec2bb" stroke="#8ec2bb" stroke-width="1.51"/><path d="M3060,-110L3200,-122L2944,-341Z" fill="#8d8a9b" stroke="#8d8a9b" stroke-width="1.51"/><path d="M3394,458L3234,110L3071,314Z" fill="#497194" stroke="#497194" stroke-width="1.51"/><path d="M856,-430L554,-365L848,-72Z" fill="#caeaba" stroke="#caeaba" stroke-width="1.51"/><path d="M22,377L151,718L472,396Z" fill="#9acfbc" stroke="#9acfbc" stroke-width="1.51"/><path d="M469,-313L333,-58L733,24Z" fill="#ceebb4" stroke="#ceebb4" stroke-width="1.51"/><path d="M554,-365L469,-313L733,24Z" fill="#d2ecb4" stroke="#d2ecb4" stroke-width="1.51"/><path d="M264,1005L148,1228L299,1123Z" fill="#8d8ea7" stroke="#8d8ea7" stroke-width="1.51"/><path d="M22,377L472,396L49,217Z" fill="#a8dab9" stroke="#a8dab9" stroke-width="1.51"/><path d="M3234,110L3200,-122L3060,-110Z" fill="#7c8295" stroke="#7c8295" stroke-width="1.51"/><path d="M3287,544L3394,458L3071,314Z" fill="#346a95" stroke="#346a95" stroke-width="1.51"/><path d="M3576,-131L3317,-280L3200,-122Z" fill="#7f8187" stroke="#7f8187" stroke-width="1.51"/><path d="M3495,817L3394,458L3275,675Z" fill="#1d568b" stroke="#1d568b" stroke-width="1.51"/><path d="M-66,1045L148,1228L264,1005Z" fill="#9292a8" stroke="#9292a8" stroke-width="1.51"/><path d="M299,1123L148,1228L773,1267Z" fill="#7f859c" stroke="#7f859c" stroke-width="1.51"/><path d="M3258,957L3495,817L3275,675Z" fill="#1a4786" stroke="#1a4786" stroke-width="1.51"/><path d="M3488,1080L3495,817L3258,957Z" fill="#17387d" stroke="#17387d" stroke-width="1.51"/><path d="M49,217L472,396L442,166Z" fill="#a8dbb8" stroke="#a8dbb8" stroke-width="1.51"/><path d="M151,718L-66,1045L264,1005Z" fill="#93a3af" stroke="#93a3af" stroke-width="1.51"/><path d="M49,217L442,166L333,-58Z" fill="#bfe5b6" stroke="#bfe5b6" stroke-width="1.51"/><path d="M27,-22L49,217L333,-58Z" fill="#cdebb4" stroke="#cdebb4" stroke-width="1.51"/><path d="M3158,1278L3488,1080L3258,957Z" fill="#1a2d7c" stroke="#1a2d7c" stroke-width="1.51"/><path d="M3580,148L3234,110L3394,458Z" fill="#4a6e89" stroke="#4a6e89" stroke-width="1.51"/><path d="M3576,-131L3200,-122L3234,110Z" fill="#767e8a" stroke="#767e8a" stroke-width="1.51"/><path d="M3200,-122L3317,-280L2944,-341Z" fill="#8d8997" stroke="#8d8997" stroke-width="1.51"/><path d="M469,-313L231,-401L333,-58Z" fill="#e0f3b5" stroke="#e0f3b5" stroke-width="1.51"/><path d="M554,-365L231,-401L469,-313Z" fill="#e1f4be" stroke="#e1f4be" stroke-width="1.51"/><path d="M856,-430L231,-401L554,-365Z" fill="#dbf1c2" stroke="#dbf1c2" stroke-width="1.51"/><path d="M-200,415L-85,634L22,377Z" fill="#a6d5bf" stroke="#a6d5bf" stroke-width="1.51"/><path d="M22,377L-85,634L151,718Z" fill="#9fcbbb" stroke="#9fcbbb" stroke-width="1.51"/><path d="M-99,161L22,377L49,217Z" fill="#b7e1b7" stroke="#b7e1b7" stroke-width="1.51"/><path d="M231,-401L27,-22L333,-58Z" fill="#dff2b2" stroke="#dff2b2" stroke-width="1.51"/><path d="M-85,634L-66,1045L151,718Z" fill="#9ab3b4" stroke="#9ab3b4" stroke-width="1.51"/><path d="M3596,1351L3580,148L3495,817Z" fill="#194a86" stroke="#194a86" stroke-width="1.51"/><path d="M3495,817L3580,148L3394,458Z" fill="#2c638d" stroke="#2c638d" stroke-width="1.51"/><path d="M-66,1045L-38,1183L148,1228Z" fill="#948ea3" stroke="#948ea3" stroke-width="1.51"/><path d="M27,-22L-99,161L49,217Z" fill="#c8e9b5" stroke="#c8e9b5" stroke-width="1.51"/><path d="M-74,-98L-99,161L27,-22Z" fill="#d8f0b5" stroke="#d8f0b5" stroke-width="1.51"/><path d="M3580,148L3576,-131L3234,110Z" fill="#6a7887" stroke="#6a7887" stroke-width="1.51"/><path d="M3488,1080L3596,1351L3495,817Z" fill="#172d77" stroke="#172d77" stroke-width="1.51"/><path d="M3158,1278L3596,1351L3488,1080Z" fill="#102367" stroke="#102367" stroke-width="1.51"/><path d="M3037,1298L3596,1351L3158,1278Z" fill="#0f2265" stroke="#0f2265" stroke-width="1.51"/><path d="M2490,1313L3596,1351L3037,1298Z" fill="#152771" stroke="#152771" stroke-width="1.51"/><path d="M2206,1311L3596,1351L2490,1313Z" fill="#19307c" stroke="#19307c" stroke-width="1.51"/><path d="M-99,161L-200,415L22,377Z" fill="#b3debc" stroke="#b3debc" stroke-width="1.51"/><path d="M-85,634L-343,814L-66,1045Z" fill="#9cb1b9" stroke="#9cb1b9" stroke-width="1.51"/><path d="M-66,1045L-330,1228L-38,1183Z" fill="#978fa8" stroke="#978fa8" stroke-width="1.51"/><path d="M-99,161L-362,244L-200,415Z" fill="#b9e1c0" stroke="#b9e1c0" stroke-width="1.51"/><path d="M-38,-320L-74,-98L27,-22Z" fill="#e6f5b2" stroke="#e6f5b2" stroke-width="1.51"/><path d="M3576,-131L3509,-390L3317,-280Z" fill="#848289" stroke="#848289" stroke-width="1.51"/><path d="M3317,-280L3509,-390L2944,-341Z" fill="#8b8797" stroke="#8b8797" stroke-width="1.51"/><path d="M2944,-341L3509,-390L2640,-370Z" fill="#958ea8" stroke="#958ea8" stroke-width="1.51"/><path d="M2640,-370L3509,-390L856,-430Z" fill="#9eaebf" stroke="#9eaebf" stroke-width="1.51"/><path d="M-473,419L-343,814L-200,415Z" fill="#a7d1c7" stroke="#a7d1c7" stroke-width="1.51"/><path d="M231,-401L-38,-320L27,-22Z" fill="#eaf7b3" stroke="#eaf7b3" stroke-width="1.51"/><path d="M-362,244L-99,161L-272,-145Z" fill="#d2edbe" stroke="#d2edbe" stroke-width="1.51"/><path d="M-200,415L-343,814L-85,634Z" fill="#a2c9c2" stroke="#a2c9c2" stroke-width="1.51"/><path d="M-343,814L-346,917L-66,1045Z" fill="#9ba6b7" stroke="#9ba6b7" stroke-width="1.51"/><path d="M-272,-145L-99,161L-74,-98Z" fill="#dff3b8" stroke="#dff3b8" stroke-width="1.51"/><path d="M-343,814L-473,419L-346,917Z" fill="#a1c0c7" stroke="#a1c0c7" stroke-width="1.51"/><path d="M-346,917L-330,1228L-66,1045Z" fill="#9b98b2" stroke="#9b98b2" stroke-width="1.51"/><path d="M-38,1183L-330,1228L148,1228Z" fill="#918b9d" stroke="#918b9d" stroke-width="1.51"/><path d="M148,1228L-330,1228L773,1267Z" fill="#858696" stroke="#858696" stroke-width="1.51"/><path d="M-267,-268L-272,-145L-74,-98Z" fill="#ecf8b9" stroke="#ecf8b9" stroke-width="1.51"/><path d="M-38,-320L-267,-268L-74,-98Z" fill="#eff9b6" stroke="#eff9b6" stroke-width="1.51"/><path d="M-272,-145L-473,419L-362,244Z" fill="#c7e8c4" stroke="#c7e8c4" stroke-width="1.51"/><path d="M231,-401L-267,-268L-38,-320Z" fill="#f1fabb" stroke="#f1fabb" stroke-width="1.51"/><path d="M-267,-268L-473,419L-272,-145Z" fill="#dff3bf" stroke="#dff3bf" stroke-width="1.51"/><path d="M-362,244L-473,419L-200,415Z" fill="#b3dec7" stroke="#b3dec7" stroke-width="1.51"/><path d="M-346,917L-473,419L-330,1228Z" fill="#9eafc0" stroke="#9eafc0" stroke-width="1.51"/></svg>